/* XPM */
static char * run_xpm[] = {
"16 16 2 1",
" 	c #2B2E37",
".	c #555E70",
"                ",
" ......  ...... ",
" ......  ...... ",
" ......  ...... ",
" ......  ...... ",
" ......  ...... ",
" ......  ...... ",
" ......         ",
" ......         ",
" ......  ...... ",
" ......  ...... ",
" ......  ...... ",
" ......  ...... ",
" ......  ...... ",
" ......  ...... ",
"                ",
"                ",
"                "};
